<svg width="19" height="19" viewBox="0 0 19 19" fill="none" xmlns="http://www.w3.org/2000/svg">
<path d="M11.2407 9.49986L18.6389 16.8985C19.1204 17.3797 19.1204 18.1578 18.6389 18.6391C18.1577 19.1203 17.3796 19.1203 16.8983 18.6391L9.49989 11.2405L2.10167 18.6391C1.62021 19.1203 0.842336 19.1203 0.361098 18.6391C-0.120366 18.1578 -0.120366 17.3797 0.361098 16.8985L7.75932 9.49986L0.361098 2.10126C-0.120366 1.62001 -0.120366 0.841904 0.361098 0.360655C0.600928 0.120596 0.916268 0 1.23138 0C1.5465 0 1.86161 0.120596 2.10167 0.360655L9.49989 7.75925L16.8983 0.360655C17.1384 0.120596 17.4535 0 17.7686 0C18.0837 0 18.3988 0.120596 18.6389 0.360655C19.1204 0.841904 19.1204 1.62001 18.6389 2.10126L11.2407 9.49986Z" fill="#E80000"/>
</svg>
